<svg width="40" height="38" viewBox="0 0 40 38" fill="none" xmlns="http://www.w3.org/2000/svg">
<path d="M12.9084 15.5007L6.86846 11.9893L0.820511 15.5007V22.5077L6.86846 26.0112L12.9084 22.5077V15.5007ZM11.6078 21.7541L6.86846 24.4959L2.12905 21.7541V16.2543L6.86846 13.5045L11.6078 16.2543V21.7541Z" fill="#2DC76D"/>
<path d="M25.9633 15.4928L20.1573 11.9893L14.3589 15.4928V22.4997L20.1573 26.0112L25.9633 22.4997V15.4928Z" fill="#2DC76D"/>
<path d="M33.4538 11.9893L27.4138 15.5007V22.5077L33.4538 26.0112L39.5017 22.5077V15.5007L33.4538 11.9893ZM38.1933 21.7541L33.4538 24.4959L28.7144 21.7541V16.2543L33.4538 13.5045L38.1933 16.2543V21.7541Z" fill="#2DC76D"/>
<path d="M7.58972 27.1052V34.1122L13.6456 37.6157L19.6776 34.1122V27.1052L13.6456 23.5938L7.58972 27.1052ZM18.3548 33.3826L13.6456 36.1004L8.86465 33.3826V27.8588L13.6456 25.109L18.3708 27.8588L18.3548 33.3826Z" fill="#2DC76D"/>
<path d="M20.6446 27.1052V34.1122L26.6845 37.6157L32.7325 34.1122V27.1052L26.6845 23.5938L20.6446 27.1052ZM31.4239 33.3826L26.6845 36.1245L21.9531 33.3826V27.8588L26.6845 25.109L31.4239 27.8588V33.3826Z" fill="#2DC76D"/>
<path d="M19.6776 10.9032V3.87221L13.6536 0.384766L7.58972 3.87221V10.8792L13.6536 14.4067L19.6776 10.9032ZM8.86635 4.67393L13.6536 1.9L18.3691 4.67393V10.1737L13.6536 12.8915L8.86635 10.1496V4.67393Z" fill="#2DC76D"/>
<path d="M32.7325 10.9273V3.89624L26.6845 0.384766L20.6446 3.89624V10.9032L26.6845 14.4067L32.7325 10.9273ZM21.9531 4.69796L26.6845 1.94811L31.4239 4.69796V10.1977L26.6845 12.9396L21.9531 10.1977V4.69796Z" fill="#2DC76D"/>
</svg>
