<svg width="18" height="18" viewBox="0 0 18 18" fill="none" xmlns="http://www.w3.org/2000/svg">
<path d="M4.5 3C5.7525 2.0625 7.3125 1.5 9 1.5C13.14 1.5 16.5 4.86 16.5 9C16.5 13.14 13.14 16.5 9 16.5C4.86 16.5 1.5 13.14 1.5 9C1.5 7.6425 1.85999 6.36749 2.49749 5.26499L9 9" stroke="#96A1B0" stroke-width="1.125" stroke-miterlimit="10" stroke-linecap="round" stroke-linejoin="round"/>
<path d="M5.12249 6.71999C4.72499 7.38749 4.5 8.1675 4.5 9C4.5 11.4825 6.5175 13.5 9 13.5C11.4825 13.5 13.5 11.4825 13.5 9C13.5 6.5175 11.4825 4.5 9 4.5C8.3175 4.5 7.66501 4.65001 7.08751 4.92751" stroke="#96A1B0" stroke-width="1.125" stroke-miterlimit="10" stroke-linecap="round" stroke-linejoin="round"/>
</svg>
