<svg width="12" height="12" viewBox="0 0 12 12" fill="none" xmlns="http://www.w3.org/2000/svg">
<path d="M9.85 10.5H2.15C0.5 10.5 0.5 9.96 0.5 9.3V8.9C0.5 8.68 0.7475 8.5 1.05 8.5H10.95C11.2525 8.5 11.5 8.68 11.5 8.9V9.3C11.5 9.96 11.5 10.5 9.85 10.5Z" stroke="#A3A3A3" stroke-width="0.75" stroke-linecap="round" stroke-linejoin="round"/>
<path d="M10.5 7V8.5H1.5V7C1.5 5.56 2.89771 4.35625 4.7596 4.0675C5.03811 4.0225 5.32693 4 5.62608 4H6.37393C6.67307 4 6.96705 4.0225 7.24556 4.0675C9.10745 4.36 10.5 5.56 10.5 7Z" stroke="#A3A3A3" stroke-width="0.75" stroke-linecap="round" stroke-linejoin="round"/>
<path d="M7.25 3.75C7.25 3.87 7.235 3.98 7.205 4.09C6.935 4.03 6.65 4 6.36 4H5.635C5.345 4 5.065 4.03 4.795 4.09C4.765 3.98 4.75 3.87 4.75 3.75C4.75 3.06 5.31 2.5 6 2.5C6.69 2.5 7.25 3.06 7.25 3.75Z" stroke="#A3A3A3" stroke-width="0.75" stroke-linecap="round" stroke-linejoin="round"/>
</svg>
