<svg width="18" height="18" viewBox="0 0 18 18" fill="none" xmlns="http://www.w3.org/2000/svg">
<path d="M12.0151 8.18476C13.3808 8.18476 14.4878 7.07776 14.4878 5.71201C14.4878 4.34701 13.3808 3.23926 12.0151 3.23926" stroke="#96A1B0" stroke-width="1.125" stroke-linecap="round" stroke-linejoin="round"/>
<path d="M13.1522 10.873C13.5602 10.9008 13.9652 10.9593 14.3649 11.0478C14.9192 11.158 15.5867 11.3853 15.8237 11.8825C15.9752 12.2013 15.9752 12.5725 15.8237 12.8913C15.5874 13.3885 14.9192 13.6158 14.3649 13.7298" stroke="#96A1B0" stroke-width="1.125" stroke-linecap="round" stroke-linejoin="round"/>
<path fill-rule="evenodd" clip-rule="evenodd" d="M7.19356 11.4043C9.96106 11.4043 12.3251 11.8235 12.3251 13.4983C12.3251 15.1738 9.97606 15.6073 7.19356 15.6073C4.42606 15.6073 2.06281 15.1888 2.06281 13.5133C2.06281 11.8378 4.41106 11.4043 7.19356 11.4043Z" stroke="#96A1B0" stroke-width="1.125" stroke-linecap="round" stroke-linejoin="round"/>
<path fill-rule="evenodd" clip-rule="evenodd" d="M7.19355 9.01425C5.36805 9.01425 3.90555 7.551 3.90555 5.7255C3.90555 3.90075 5.36805 2.4375 7.19355 2.4375C9.01905 2.4375 10.4823 3.90075 10.4823 5.7255C10.4823 7.551 9.01905 9.01425 7.19355 9.01425Z" stroke="#96A1B0" stroke-width="1.125" stroke-linecap="round" stroke-linejoin="round"/>
</svg>
