<svg width="192" height="44" viewBox="0 0 192 44" fill="none" xmlns="http://www.w3.org/2000/svg">
<path d="M14.9084 18.5007L8.86846 14.9893L2.82051 18.5007V25.5077L8.86846 29.0112L14.9084 25.5077V18.5007ZM13.6078 24.7541L8.86846 27.4959L4.12905 24.7541V19.2543L8.86846 16.5045L13.6078 19.2543V24.7541Z" fill="#13A456"/>
<path d="M27.9633 18.4928L22.1573 14.9893L16.3589 18.4928V25.4997L22.1573 29.0112L27.9633 25.4997V18.4928Z" fill="#13A456"/>
<path d="M35.4538 14.9893L29.4138 18.5007V25.5077L35.4538 29.0112L41.5017 25.5077V18.5007L35.4538 14.9893ZM40.1933 24.7541L35.4538 27.4959L30.7144 24.7541V19.2543L35.4538 16.5045L40.1933 19.2543V24.7541Z" fill="#13A456"/>
<path d="M9.58972 30.1052V37.1122L15.6456 40.6157L21.6776 37.1122V30.1052L15.6456 26.5938L9.58972 30.1052ZM20.3548 36.3826L15.6456 39.1004L10.8647 36.3826V30.8588L15.6456 28.109L20.3708 30.8588L20.3548 36.3826Z" fill="#13A456"/>
<path d="M22.6446 30.1052V37.1122L28.6845 40.6157L34.7325 37.1122V30.1052L28.6845 26.5938L22.6446 30.1052ZM33.4239 36.3826L28.6845 39.1245L23.9531 36.3826V30.8588L28.6845 28.109L33.4239 30.8588V36.3826Z" fill="#13A456"/>
<path d="M21.6776 13.9032V6.87221L15.6536 3.38477L9.58972 6.87221V13.8792L15.6536 17.4067L21.6776 13.9032ZM10.8663 7.67393L15.6536 4.9L20.3691 7.67393V13.1737L15.6536 15.8915L10.8663 13.1496V7.67393Z" fill="#13A456"/>
<path d="M34.7325 13.9273V6.89624L28.6845 3.38477L22.6446 6.89624V13.9032L28.6845 17.4067L34.7325 13.9273ZM23.9531 7.69796L28.6845 4.94811L33.4239 7.69796V13.1977L28.6845 15.9396L23.9531 13.1977V7.69796Z" fill="#13A456"/>
<path d="M52.924 24.244C52.924 22.6387 53.2507 21.2387 53.904 20.044C54.5573 18.8307 55.4627 17.8973 56.62 17.244C57.7773 16.572 59.1027 16.236 60.596 16.236C62.5187 16.236 64.1053 16.7213 65.356 17.692C66.6253 18.644 67.4747 19.988 67.904 21.724H63.676C63.452 21.052 63.0693 20.5293 62.528 20.156C62.0053 19.764 61.352 19.568 60.568 19.568C59.448 19.568 58.5613 19.9787 57.908 20.8C57.2547 21.6027 56.928 22.7507 56.928 24.244C56.928 25.7187 57.2547 26.8667 57.908 27.688C58.5613 28.4907 59.448 28.892 60.568 28.892C62.1547 28.892 63.1907 28.1827 63.676 26.764H67.904C67.4747 28.444 66.6253 29.7787 65.356 30.768C64.0867 31.7573 62.5 32.252 60.596 32.252C59.1027 32.252 57.7773 31.9253 56.62 31.272C55.4627 30.6 54.5573 29.6667 53.904 28.472C53.2507 27.2587 52.924 25.8493 52.924 24.244ZM76.9638 32.252C75.4704 32.252 74.1264 31.9253 72.9317 31.272C71.7371 30.6 70.7944 29.6573 70.1037 28.444C69.4317 27.2307 69.0957 25.8307 69.0957 24.244C69.0957 22.6573 69.4411 21.2573 70.1317 20.044C70.8411 18.8307 71.8024 17.8973 73.0157 17.244C74.2291 16.572 75.5824 16.236 77.0757 16.236C78.5691 16.236 79.9224 16.572 81.1357 17.244C82.3491 17.8973 83.3011 18.8307 83.9918 20.044C84.7011 21.2573 85.0558 22.6573 85.0558 24.244C85.0558 25.8307 84.6917 27.2307 83.9637 28.444C83.2544 29.6573 82.2837 30.6 81.0517 31.272C79.8384 31.9253 78.4758 32.252 76.9638 32.252ZM76.9638 28.836C77.6731 28.836 78.3357 28.668 78.9517 28.332C79.5864 27.9773 80.0904 27.4547 80.4638 26.764C80.8371 26.0733 81.0237 25.2333 81.0237 24.244C81.0237 22.7693 80.6317 21.64 79.8477 20.856C79.0824 20.0533 78.1397 19.652 77.0197 19.652C75.8997 19.652 74.9571 20.0533 74.1917 20.856C73.4451 21.64 73.0717 22.7693 73.0717 24.244C73.0717 25.7187 73.4357 26.8573 74.1637 27.66C74.9104 28.444 75.8437 28.836 76.9638 28.836ZM94.1192 32.252C92.6259 32.252 91.2819 31.9253 90.0872 31.272C88.8926 30.6 87.9499 29.6573 87.2592 28.444C86.5872 27.2307 86.2512 25.8307 86.2512 24.244C86.2512 22.6573 86.5966 21.2573 87.2872 20.044C87.9966 18.8307 88.9579 17.8973 90.1712 17.244C91.3846 16.572 92.7379 16.236 94.2312 16.236C95.7246 16.236 97.0779 16.572 98.2912 17.244C99.5046 17.8973 100.457 18.8307 101.147 20.044C101.857 21.2573 102.211 22.6573 102.211 24.244C102.211 25.8307 101.847 27.2307 101.119 28.444C100.41 29.6573 99.4392 30.6 98.2072 31.272C96.9939 31.9253 95.6312 32.252 94.1192 32.252ZM94.1192 28.836C94.8286 28.836 95.4912 28.668 96.1072 28.332C96.7419 27.9773 97.2459 27.4547 97.6192 26.764C97.9926 26.0733 98.1792 25.2333 98.1792 24.244C98.1792 22.7693 97.7872 21.64 97.0032 20.856C96.2379 20.0533 95.2952 19.652 94.1752 19.652C93.0552 19.652 92.1126 20.0533 91.3472 20.856C90.6006 21.64 90.2272 22.7693 90.2272 24.244C90.2272 25.7187 90.5912 26.8573 91.3192 27.66C92.0659 28.444 92.9992 28.836 94.1192 28.836ZM113.571 32L108.307 25.392V32H104.387V11.28H108.307V23.068L113.515 16.488H118.611L111.779 24.272L118.667 32H113.571ZM134.458 23.908C134.458 24.468 134.421 24.972 134.346 25.42H123.006C123.1 26.54 123.492 27.4173 124.182 28.052C124.873 28.6867 125.722 29.004 126.73 29.004C128.186 29.004 129.222 28.3787 129.838 27.128H134.066C133.618 28.6213 132.76 29.8533 131.49 30.824C130.221 31.776 128.662 32.252 126.814 32.252C125.321 32.252 123.977 31.9253 122.782 31.272C121.606 30.6 120.682 29.6573 120.01 28.444C119.357 27.2307 119.03 25.8307 119.03 24.244C119.03 22.6387 119.357 21.2293 120.01 20.016C120.664 18.8027 121.578 17.8693 122.754 17.216C123.93 16.5627 125.284 16.236 126.814 16.236C128.289 16.236 129.605 16.5533 130.762 17.188C131.938 17.8227 132.844 18.728 133.478 19.904C134.132 21.0613 134.458 22.396 134.458 23.908ZM130.398 22.788C130.38 21.78 130.016 20.9773 129.306 20.38C128.597 19.764 127.729 19.456 126.702 19.456C125.732 19.456 124.91 19.7547 124.238 20.352C123.585 20.9307 123.184 21.7427 123.034 22.788H130.398ZM135.611 24.188C135.611 22.62 135.919 21.2293 136.535 20.016C137.17 18.8027 138.02 17.8693 139.084 17.216C140.166 16.5627 141.37 16.236 142.696 16.236C143.853 16.236 144.861 16.4693 145.72 16.936C146.597 17.4027 147.297 17.9907 147.82 18.7V16.488H151.768V32H147.82V29.732C147.316 30.46 146.616 31.0667 145.72 31.552C144.842 32.0187 143.825 32.252 142.668 32.252C141.361 32.252 140.166 31.916 139.084 31.244C138.02 30.572 137.17 29.6293 136.535 28.416C135.919 27.184 135.611 25.7747 135.611 24.188ZM147.82 24.244C147.82 23.292 147.633 22.48 147.26 21.808C146.886 21.1173 146.382 20.5947 145.748 20.24C145.113 19.8667 144.432 19.68 143.704 19.68C142.976 19.68 142.304 19.8573 141.688 20.212C141.072 20.5667 140.568 21.0893 140.176 21.78C139.802 22.452 139.616 23.2547 139.616 24.188C139.616 25.1213 139.802 25.9427 140.176 26.652C140.568 27.3427 141.072 27.8747 141.688 28.248C142.322 28.6213 142.994 28.808 143.704 28.808C144.432 28.808 145.113 28.6307 145.748 28.276C146.382 27.9027 146.886 27.38 147.26 26.708C147.633 26.0173 147.82 25.196 147.82 24.244ZM160.832 32.252C159.563 32.252 158.424 32.028 157.416 31.58C156.408 31.1133 155.605 30.488 155.008 29.704C154.429 28.92 154.112 28.052 154.056 27.1H158.004C158.079 27.6973 158.368 28.192 158.872 28.584C159.395 28.976 160.039 29.172 160.804 29.172C161.551 29.172 162.129 29.0227 162.54 28.724C162.969 28.4253 163.184 28.0427 163.184 27.576C163.184 27.072 162.923 26.6987 162.4 26.456C161.896 26.1947 161.084 25.9147 159.964 25.616C158.807 25.336 157.855 25.0467 157.108 24.748C156.38 24.4493 155.745 23.992 155.204 23.376C154.681 22.76 154.42 21.9293 154.42 20.884C154.42 20.0253 154.663 19.2413 155.148 18.532C155.652 17.8227 156.361 17.2627 157.276 16.852C158.209 16.4413 159.301 16.236 160.552 16.236C162.4 16.236 163.875 16.7027 164.976 17.636C166.077 18.5507 166.684 19.792 166.796 21.36H163.044C162.988 20.744 162.727 20.2587 162.26 19.904C161.812 19.5307 161.205 19.344 160.44 19.344C159.731 19.344 159.18 19.4747 158.788 19.736C158.415 19.9973 158.228 20.3613 158.228 20.828C158.228 21.3507 158.489 21.752 159.012 22.032C159.535 22.2933 160.347 22.564 161.448 22.844C162.568 23.124 163.492 23.4133 164.22 23.712C164.948 24.0107 165.573 24.4773 166.096 25.112C166.637 25.728 166.917 26.5493 166.936 27.576C166.936 28.472 166.684 29.2747 166.18 29.984C165.695 30.6933 164.985 31.2533 164.052 31.664C163.137 32.056 162.064 32.252 160.832 32.252ZM183.874 23.908C183.874 24.468 183.837 24.972 183.762 25.42H172.422C172.515 26.54 172.907 27.4173 173.598 28.052C174.289 28.6867 175.138 29.004 176.146 29.004C177.602 29.004 178.638 28.3787 179.254 27.128H183.482C183.034 28.6213 182.175 29.8533 180.906 30.824C179.637 31.776 178.078 32.252 176.23 32.252C174.737 32.252 173.393 31.9253 172.198 31.272C171.022 30.6 170.098 29.6573 169.426 28.444C168.773 27.2307 168.446 25.8307 168.446 24.244C168.446 22.6387 168.773 21.2293 169.426 20.016C170.079 18.8027 170.994 17.8693 172.17 17.216C173.346 16.5627 174.699 16.236 176.23 16.236C177.705 16.236 179.021 16.5533 180.178 17.188C181.354 17.8227 182.259 18.728 182.894 19.904C183.547 21.0613 183.874 22.396 183.874 23.908ZM179.814 22.788C179.795 21.78 179.431 20.9773 178.722 20.38C178.013 19.764 177.145 19.456 176.118 19.456C175.147 19.456 174.326 19.7547 173.654 20.352C173.001 20.9307 172.599 21.7427 172.45 22.788H179.814ZM187.771 32.196C187.062 32.196 186.474 31.9813 186.007 31.552C185.559 31.104 185.335 30.5533 185.335 29.9C185.335 29.2467 185.559 28.7053 186.007 28.276C186.474 27.828 187.062 27.604 187.771 27.604C188.462 27.604 189.031 27.828 189.479 28.276C189.927 28.7053 190.151 29.2467 190.151 29.9C190.151 30.5533 189.927 31.104 189.479 31.552C189.031 31.9813 188.462 32.196 187.771 32.196Z" fill="white"/>
</svg>
