<svg width="20" height="20" viewBox="0 0 20 20" fill="none" xmlns="http://www.w3.org/2000/svg">
<path d="M14.5333 12.8085C14.375 12.8085 14.2167 12.7502 14.0917 12.6252C13.85 12.3835 13.85 11.9835 14.0917 11.7419L15.7833 10.0502L14.0917 8.35853C13.85 8.11686 13.85 7.71686 14.0917 7.4752C14.3333 7.23353 14.7333 7.23353 14.975 7.4752L17.1083 9.60853C17.35 9.85019 17.35 10.2502 17.1083 10.4919L14.975 12.6252C14.85 12.7502 14.6917 12.8085 14.5333 12.8085Z" fill="#292D32"/>
<path d="M16.6083 10.6748H8.13333C7.79166 10.6748 7.50833 10.3915 7.50833 10.0498C7.50833 9.70814 7.79166 9.4248 8.13333 9.4248H16.6083C16.95 9.4248 17.2333 9.70814 17.2333 10.0498C17.2333 10.3915 16.95 10.6748 16.6083 10.6748Z" fill="#292D32"/>
<path d="M9.8 17.2913C5.50833 17.2913 2.50833 14.2913 2.50833 9.99967C2.50833 5.70801 5.50833 2.70801 9.8 2.70801C10.1417 2.70801 10.425 2.99134 10.425 3.33301C10.425 3.67467 10.1417 3.95801 9.8 3.95801C6.24166 3.95801 3.75833 6.44134 3.75833 9.99967C3.75833 13.558 6.24166 16.0413 9.8 16.0413C10.1417 16.0413 10.425 16.3247 10.425 16.6663C10.425 17.008 10.1417 17.2913 9.8 17.2913Z" fill="#292D32"/>
</svg>
