<?xml version="1.0" standalone="no"?>
<!DOCTYPE svg PUBLIC "-//W3C//DTD SVG 20010904//EN"
 "http://www.w3.org/TR/2001/REC-SVG-20010904/DTD/svg10.dtd">
<svg version="1.0" xmlns="http://www.w3.org/2000/svg"
 width="570.000000pt" height="542.000000pt" viewBox="0 0 570.000000 542.000000"
 preserveAspectRatio="xMidYMid meet">

<g transform="translate(0.000000,542.000000) scale(0.100000,-0.100000)"
fill="#000000" stroke="none">
<path d="M1769 4745 c-29 -47 -53 -85 -55 -85 -1 0 -19 27 -39 60 -31 51 -41
60 -66 60 -16 0 -29 -2 -29 -5 0 -2 25 -42 55 -89 l55 -84 0 -81 c0 -80 0 -81
25 -81 25 0 25 1 25 82 l0 81 56 91 c31 50 64 101 72 114 14 21 13 22 -16 22
-28 0 -36 -8 -83 -85z"/>
<path d="M1958 4780 c-70 -21 -128 -98 -128 -171 0 -78 69 -160 146 -175 74
-14 153 27 190 97 17 33 18 106 3 146 -30 80 -128 128 -211 103z m112 -65 c60
-31 78 -116 37 -176 -53 -78 -166 -70 -207 16 -18 37 -20 49 -10 84 21 79 106
114 180 76z"/>
<path d="M2220 4665 c0 -133 14 -181 61 -209 43 -26 121 -25 157 0 50 37 62
77 62 207 l0 117 -25 0 -25 0 0 -104 c0 -151 -17 -186 -93 -186 -23 0 -41 8
-58 26 -22 24 -24 35 -27 145 -4 118 -4 119 -28 119 -24 0 -24 0 -24 -115z"/>
<path d="M2530 4610 l0 -170 30 0 c29 0 30 1 30 50 l0 50 38 0 c36 -1 38 -3
82 -83 38 -69 49 -83 73 -85 15 -2 27 -1 27 3 0 3 -20 41 -45 85 -25 44 -45
82 -45 85 0 3 9 5 21 5 11 0 34 13 50 29 24 24 29 38 29 76 0 56 -20 97 -55
113 -15 7 -71 12 -130 12 l-105 0 0 -170z m220 100 c24 -24 26 -67 3 -92 -13
-14 -31 -18 -90 -18 l-73 0 0 65 0 65 70 0 c57 0 74 -4 90 -20z"/>
<path d="M1065 4362 c-132 -81 -220 -347 -170 -517 57 -199 325 -226 449 -46
23 32 34 39 71 45 25 3 64 15 86 27 52 26 54 35 -41 -175 -111 -245 -200 -529
-200 -636 0 -64 58 -88 134 -56 106 44 171 232 236 686 l31 215 52 94 c76 139
179 244 216 221 34 -21 29 -182 -6 -208 -10 -7 -54 -35 -98 -63 -99 -63 -165
-125 -165 -156 0 -31 52 -57 115 -57 99 0 199 81 260 209 38 79 34 76 138 90
56 7 55 11 32 -133 -23 -139 -22 -194 4 -230 28 -40 82 -58 122 -42 34 15 100
85 137 150 25 42 27 43 32 20 3 -14 18 -32 33 -40 46 -25 71 -1 197 187 130
195 169 243 199 243 30 0 28 -24 -25 -201 -25 -85 -48 -184 -51 -221 -5 -57
-3 -71 17 -102 70 -115 174 -68 310 140 l52 79 -7 -91 -7 -92 33 -36 c24 -25
46 -39 72 -43 36 -6 41 -3 96 54 32 32 77 92 100 132 l43 73 18 -53 c63 -184
325 -202 444 -31 23 34 34 40 74 46 26 3 70 19 99 35 l52 29 -2 -66 c-2 -62
-1 -67 26 -81 43 -25 72 -1 163 139 133 203 191 279 219 286 14 3 29 3 33 0 7
-7 -17 -102 -64 -256 -15 -47 -28 -119 -31 -160 -4 -67 -2 -79 19 -110 82
-121 179 -57 368 243 58 92 105 170 104 174 0 5 -7 9 -15 11 -9 1 -57 -64
-126 -171 -154 -237 -205 -289 -232 -238 -15 27 1 104 60 295 74 239 66 306
-34 306 -33 0 -54 -8 -84 -29 -61 -44 -160 -167 -237 -296 -20 -33 -36 -55
-36 -50 0 6 16 89 34 185 19 96 32 178 30 182 -8 13 -75 21 -97 11 -19 -9 -26
-29 -47 -149 -27 -157 -38 -175 -135 -220 -61 -29 -90 -31 -80 -6 20 51 36
154 33 202 -11 142 -104 203 -216 140 -127 -71 -136 -233 -20 -341 57 -54 57
-58 -14 -135 -35 -38 -46 -44 -80 -44 -126 0 -157 208 -60 408 33 69 115 154
165 173 20 7 37 17 37 21 0 5 -15 17 -32 28 -39 24 -107 26 -147 6 -38 -20
-96 -86 -125 -145 -32 -63 -66 -184 -66 -236 0 -32 -12 -60 -51 -124 -55 -90
-123 -165 -142 -158 -7 2 -14 19 -16 38 -3 38 14 195 34 304 8 38 11 73 9 77
-7 11 -71 21 -98 14 -21 -5 -25 -14 -34 -76 -9 -62 -19 -85 -76 -173 -95 -148
-156 -222 -186 -222 -48 0 -40 80 32 305 55 175 62 212 48 255 -14 42 -35 55
-88 55 -72 0 -144 -71 -278 -273 -41 -61 -74 -109 -74 -106 0 2 16 85 35 183
25 127 32 183 25 190 -12 12 -94 15 -105 4 -4 -4 -20 -77 -36 -163 -16 -87
-39 -176 -51 -199 -34 -68 -94 -150 -133 -185 -34 -29 -39 -31 -53 -17 -14 14
-13 31 7 173 13 87 25 177 28 199 l5 42 -40 7 c-57 9 -82 -1 -89 -36 -4 -23
-11 -29 -32 -29 -14 0 -49 -3 -78 -6 l-52 -7 11 42 c22 87 -17 211 -76 239
-71 35 -145 -15 -241 -161 -38 -58 -71 -104 -73 -102 -3 2 4 58 13 124 20 136
16 151 -41 151 -38 0 -64 -22 -64 -53 0 -12 -10 -93 -22 -181 l-21 -158 -45
-29 c-40 -25 -99 -46 -107 -37 -1 1 6 37 17 78 59 226 -52 371 -208 274 -123
-76 -125 -245 -3 -347 l42 -34 -22 -36 c-126 -204 -292 -59 -226 197 35 133
124 256 208 287 20 7 37 17 37 21 0 5 -15 17 -32 28 -42 25 -113 26 -153 2z
m237 -169 c14 -12 18 -30 17 -77 0 -62 -27 -166 -43 -169 -5 -1 -23 15 -39 36
-26 31 -32 49 -35 100 -4 57 -1 66 23 95 30 36 50 40 77 15z m2682 1 c11 -11
16 -34 15 -77 0 -63 -27 -167 -43 -170 -5 -1 -23 15 -39 36 -26 31 -32 49 -35
100 -4 57 -1 66 23 95 29 35 55 40 79 16z m-2074 -242 c0 -18 -105 -124 -141
-142 -45 -24 -59 -25 -59 -6 0 18 58 68 134 118 64 41 66 42 66 30z m-415
-378 c-60 -333 -124 -544 -165 -544 -36 0 -19 112 43 296 51 148 128 346 134
340 2 -2 -3 -44 -12 -92z"/>
<path d="M2272 4317 c-19 -22 -27 -104 -12 -122 16 -19 80 -20 105 -1 15 11
19 27 20 72 l0 59 -51 3 c-34 2 -55 -2 -62 -11z"/>
<path d="M3307 4313 c-8 -10 -18 -39 -22 -65 -6 -40 -4 -48 13 -57 31 -17 80
-13 100 7 24 24 37 99 21 118 -17 20 -92 18 -112 -3z"/>
<path d="M3416 3634 c-9 -8 -16 -18 -16 -20 0 -7 -89 -542 -96 -576 -5 -27 -8
-28 -62 -28 -103 0 -162 -51 -121 -104 22 -28 49 -34 49 -12 0 23 41 46 83 46
30 0 38 -3 34 -15 -4 -8 -20 -108 -38 -222 -30 -201 -33 -211 -84 -318 -72
-154 -131 -218 -176 -194 -19 10 -21 17 -16 73 3 36 22 105 47 169 60 159 50
179 -122 231 -48 14 -89 30 -92 35 -3 4 13 32 35 62 61 82 81 124 77 172 -4
55 -48 87 -119 87 -77 0 -139 -65 -158 -165 -12 -62 4 -132 38 -175 l28 -35
-72 -110 c-87 -135 -189 -247 -219 -243 -19 3 -21 9 -18 63 2 33 13 100 24
149 22 98 20 106 -37 106 -42 0 -50 -7 -78 -71 -25 -57 -66 -99 -98 -99 -29 0
-44 62 -30 125 32 140 159 255 256 231 55 -14 88 -86 66 -146 -8 -25 -7 -32 5
-37 26 -10 38 14 42 80 3 52 0 67 -20 96 -38 57 -81 76 -168 76 -58 0 -85 -6
-117 -23 -45 -23 -105 -78 -138 -125 -16 -23 -30 -30 -69 -34 l-49 -6 7 47
c11 73 -10 154 -50 194 -31 31 -39 34 -75 29 -59 -8 -103 -48 -180 -164 -38
-58 -69 -101 -69 -96 0 4 7 59 16 121 13 89 14 115 4 127 -15 18 -74 20 -88 2
-6 -7 -16 -53 -22 -102 -30 -247 -49 -332 -96 -433 -152 -323 -245 -647 -204
-712 15 -24 102 -20 137 6 88 65 144 244 199 639 l26 190 51 95 c31 56 75 119
107 153 82 84 120 74 120 -31 0 -82 -13 -102 -97 -152 -94 -56 -186 -140 -181
-166 1 -11 19 -27 38 -36 105 -53 244 28 319 184 32 69 43 78 93 78 25 0 29
-3 23 -17 -18 -42 -18 -144 1 -184 31 -70 88 -85 167 -45 l47 23 0 -69 c0 -64
3 -72 29 -99 38 -37 74 -37 132 -1 62 40 138 128 222 259 52 82 76 111 87 106
8 -3 49 -16 90 -28 41 -12 76 -27 77 -32 2 -5 -13 -51 -32 -102 -41 -106 -55
-204 -35 -251 17 -41 86 -81 142 -82 39 0 47 4 93 54 28 30 67 85 86 121 l34
66 23 -29 c24 -30 92 -57 115 -44 6 4 36 25 66 47 88 68 267 315 244 338 -8 8
-30 -18 -76 -88 -71 -108 -185 -238 -216 -246 -43 -11 -45 12 -17 226 15 111
32 235 38 275 l11 72 91 0 c103 0 130 11 124 50 -3 24 -4 24 -100 21 -59 -1
-98 1 -98 7 0 6 22 146 50 313 46 281 48 304 33 321 -20 22 -56 23 -77 2z
m-536 -684 c9 -17 6 -31 -13 -73 -30 -64 -91 -150 -100 -140 -4 3 -7 30 -7 59
0 114 84 222 120 154z m-1082 -416 c-34 -48 -60 -69 -116 -98 -38 -20 -47 -17
-37 12 5 19 158 132 178 132 4 0 -7 -21 -25 -46z m-368 -356 c-63 -334 -117
-489 -161 -463 -17 11 -3 92 38 220 45 140 137 378 141 365 2 -5 -6 -60 -18
-122z"/>
<path d="M4457 3550 c-80 -24 -150 -130 -182 -277 -36 -161 -38 -166 -80 -195
-22 -15 -53 -30 -69 -34 -26 -6 -28 -5 -22 12 16 42 27 128 20 167 -4 25 -18
52 -36 70 -25 26 -34 29 -71 24 -32 -4 -51 -15 -79 -46 -32 -34 -38 -47 -38
-85 0 -60 14 -93 57 -132 l35 -33 -22 -36 c-42 -68 -108 -78 -144 -23 -62 97
14 326 125 375 22 9 38 22 36 27 -2 6 -22 18 -46 26 -39 14 -45 13 -79 -5
-107 -58 -175 -296 -116 -410 27 -52 84 -85 147 -85 64 0 104 19 149 68 26 29
50 45 78 51 22 5 56 19 76 30 l37 22 -6 -53 c-24 -207 -17 -368 19 -443 20
-43 66 -75 95 -68 72 19 86 215 25 349 l-23 50 72 37 c76 39 155 111 205 187
34 51 36 60 16 60 -8 0 -28 -22 -46 -50 -43 -66 -130 -144 -201 -181 -89 -44
-92 -43 -84 44 4 39 9 75 11 78 2 4 28 18 58 33 112 55 223 221 233 350 5 59
4 64 -22 84 -29 23 -76 27 -128 12z m76 -80 c-3 -66 -80 -216 -148 -288 -51
-54 -54 -55 -55 -31 0 41 47 196 81 266 33 68 71 106 103 101 18 -3 21 -9 19
-48z m-495 -255 c3 -51 -14 -135 -29 -135 -12 0 -47 53 -54 83 -14 54 18 111
59 105 18 -3 21 -11 24 -53z m303 -523 c11 -95 7 -172 -10 -172 -28 0 -50 176
-36 286 l8 59 13 -37 c7 -21 18 -82 25 -136z"/>
<path d="M1830 3435 l0 -45 40 0 40 0 0 45 0 45 -40 0 -40 0 0 -45z"/>
<path d="M2870 3446 c0 -29 -4 -34 -30 -39 -27 -6 -30 -10 -30 -47 0 -35 3
-40 24 -40 22 0 24 -5 31 -67 6 -54 12 -72 35 -95 38 -38 77 -37 118 3 37 36
39 49 14 72 -23 21 -36 21 -52 2 -19 -23 -30 -8 -30 41 l0 44 40 0 40 0 0 45
0 45 -40 0 c-39 0 -40 1 -40 35 0 34 -1 35 -40 35 -39 0 -40 -1 -40 -34z"/>
<path d="M4862 3439 c-107 -53 -137 -204 -56 -284 30 -31 41 -35 86 -35 45 0
54 4 89 39 34 33 39 45 39 83 0 25 -3 48 -7 51 -3 4 -30 -16 -60 -44 -51 -48
-55 -50 -76 -36 -34 22 -35 86 -2 125 51 61 141 61 210 1 43 -38 58 -85 53
-162 -6 -83 -31 -131 -138 -267 -153 -193 -175 -267 -126 -424 34 -109 41
-162 27 -212 -12 -46 -55 -91 -97 -104 -26 -7 -27 -8 -6 -9 33 -1 80 28 103
65 33 54 34 109 5 222 -51 197 -34 252 143 462 97 114 125 173 130 273 5 121
-28 192 -118 248 -57 37 -134 40 -199 8z"/>
<path d="M1978 3424 c-48 -26 -62 -79 -32 -122 8 -12 38 -34 65 -47 27 -14 49
-28 49 -31 0 -4 -24 -3 -54 0 l-54 7 -11 -32 c-13 -37 -10 -42 38 -58 77 -26
151 -4 170 49 17 51 -12 97 -87 135 -41 20 -35 31 9 16 47 -16 54 -14 67 22
16 45 18 43 -35 61 -57 20 -90 20 -125 0z"/>
<path d="M2320 3284 l0 -154 44 0 44 0 4 100 c3 103 15 137 40 112 8 -8 13
-47 13 -112 l0 -100 43 0 c48 0 45 -7 43 130 -4 147 -30 178 -154 178 l-77 1
0 -155z"/>
<path d="M2643 3425 c-50 -21 -73 -68 -73 -147 0 -37 5 -79 12 -93 15 -32 56
-55 100 -55 70 0 108 57 108 162 0 72 -24 122 -66 138 -33 13 -42 12 -81 -5z
m65 -125 c3 -53 -16 -87 -43 -76 -15 5 -17 14 -12 56 7 60 13 72 35 68 12 -2
18 -16 20 -48z"/>
<path d="M1827 3363 c-3 -7 -2 -179 2 -218 1 -11 13 -15 41 -15 l40 0 0 120 0
120 -39 0 c-22 0 -42 -3 -44 -7z"/>
<path d="M748 3046 c-94 -25 -179 -101 -231 -206 -31 -62 -32 -69 -32 -190 0
-119 2 -129 33 -201 40 -94 130 -207 256 -323 117 -107 203 -213 247 -301 44
-90 49 -182 20 -356 -25 -150 -26 -217 -5 -288 22 -74 91 -144 163 -165 62
-18 101 -21 101 -6 0 6 -14 10 -30 10 -70 0 -153 60 -191 138 -32 66 -32 190
1 327 29 120 31 236 7 315 -30 100 -85 176 -252 349 -234 243 -287 332 -289
486 -1 129 53 221 159 271 123 58 263 3 295 -117 14 -51 -1 -103 -37 -126 -23
-15 -27 -15 -58 1 -18 10 -59 40 -91 67 -33 27 -65 49 -71 49 -17 0 -17 -84
-2 -131 23 -67 95 -122 178 -135 91 -15 186 56 217 162 44 153 -47 316 -204
364 -73 23 -117 24 -184 6z"/>
<path d="M5075 2761 c-75 -34 -126 -158 -96 -235 4 -11 7 7 7 45 1 73 18 113
66 154 28 24 38 27 87 23 44 -4 59 -10 78 -32 29 -34 30 -75 2 -110 -24 -30
-36 -32 -61 -10 -16 16 -18 16 -24 0 -17 -45 40 -72 84 -39 57 42 60 133 7
183 -27 26 -113 37 -150 21z"/>
<path d="M4654 2510 c-35 -14 -64 -59 -64 -101 0 -51 8 -67 41 -85 35 -18 46
-4 29 40 -23 63 0 106 57 106 40 0 90 -54 98 -107 11 -66 13 -69 14 -22 3 113
-90 203 -175 169z"/>
<path d="M3730 2395 c0 -23 -4 -25 -45 -25 -41 0 -45 -2 -45 -25 0 -23 4 -25
45 -25 l45 0 0 -145 0 -145 30 0 30 0 0 145 0 145 105 0 105 0 0 25 0 25 -105
0 -105 0 0 25 c0 21 -5 25 -30 25 -25 0 -30 -4 -30 -25z"/>
<path d="M4030 2224 l0 -195 28 3 c25 3 27 6 28 53 l1 50 91 3 92 3 0 -56 c0
-52 1 -55 25 -55 l25 0 0 170 0 170 -25 0 c-25 0 -25 -1 -25 -90 l0 -90 -90 0
c-104 0 -93 -16 -90 138 l2 92 -31 0 -31 0 0 -196z"/>
<path d="M4360 2200 l0 -170 105 0 105 0 0 25 c0 25 -1 25 -80 25 l-80 0 0 65
0 65 65 0 c63 0 65 1 65 25 0 24 -2 25 -65 25 l-65 0 0 30 0 30 65 0 c63 0 65
1 65 25 0 25 -1 25 -90 25 l-90 0 0 -170z"/>
<path d="M3280 1925 l0 -105 105 0 106 0 -3 103 -3 102 -102 3 -103 3 0 -106z"/>
<path d="M1613 1933 c-10 -4 -13 -88 -13 -374 l0 -369 106 0 107 0 -7 241 c-6
211 -5 243 9 265 27 42 66 28 80 -29 8 -31 7 -31 113 12 65 27 67 29 64 62 -1
18 -13 52 -26 74 -63 105 -166 151 -247 110 -26 -14 -30 -14 -35 0 -5 11 -22
15 -73 14 -36 0 -72 -3 -78 -6z"/>
<path d="M3530 1460 l0 -480 105 0 105 0 0 110 0 110 68 0 c165 0 258 113 270
327 7 142 -27 270 -92 341 -54 61 -166 88 -254 63 -20 -6 -32 -6 -32 0 0 5
-38 9 -85 9 l-85 0 0 -480z m316 243 c23 -35 31 -179 15 -241 -13 -48 -31 -59
-70 -46 -33 12 -49 68 -50 172 -1 96 17 142 57 142 21 0 35 -8 48 -27z"/>
<path d="M560 1914 c-77 -33 -123 -100 -123 -180 0 -97 67 -174 151 -174 32 0
45 6 61 26 25 32 26 47 4 70 -16 15 -18 15 -38 -10 -29 -36 -69 -35 -105 4
-49 53 -46 141 7 193 81 76 197 75 288 -5 55 -49 84 -122 94 -238 l7 -85 8 60
c18 140 -52 277 -169 331 -58 28 -133 31 -185 8z"/>
<path d="M2315 1911 c-124 -56 -226 -271 -211 -443 12 -130 51 -194 146 -241
55 -27 75 -32 140 -32 63 0 84 5 134 30 84 42 86 48 46 139 -26 59 -37 75 -49
70 -91 -39 -181 -41 -201 -4 -10 18 -7 20 28 20 122 0 240 55 279 129 45 87
22 234 -48 298 -57 52 -188 69 -264 34z m129 -203 c17 -27 -12 -50 -59 -46
l-38 3 28 33 c29 35 51 38 69 10z"/>
<path d="M2874 1919 c-50 -14 -118 -82 -152 -152 -88 -179 -52 -441 73 -527
135 -93 341 -42 416 102 l19 37 -62 55 -62 54 -41 -34 c-23 -19 -57 -39 -74
-45 -28 -10 -37 -9 -59 8 -43 32 -53 60 -50 143 6 120 48 182 113 166 19 -5
32 -19 43 -46 19 -45 31 -48 140 -29 l64 11 -6 42 c-16 99 -79 182 -163 212
-43 15 -152 17 -199 3z"/>
<path d="M4313 1911 c-85 -39 -165 -152 -198 -281 -33 -124 -6 -290 56 -356
11 -12 48 -35 82 -50 90 -41 188 -41 271 1 33 17 64 37 69 46 7 11 1 37 -23
90 -19 41 -35 75 -35 77 -1 1 -28 -7 -60 -18 -70 -24 -113 -25 -143 -4 -33 23
-27 34 18 34 95 0 193 35 242 87 105 110 59 330 -79 377 -63 22 -148 20 -200
-3z m118 -191 c43 -23 11 -63 -47 -58 l-37 3 27 33 c31 36 30 36 57 22z"/>
<path d="M3280 1485 l0 -295 100 0 100 0 0 295 0 295 -100 0 -100 0 0 -295z"/>
<path d="M1310 1579 c-43 -18 -89 -71 -110 -126 -27 -72 -35 -152 -20 -197 15
-47 31 -56 19 -10 -30 106 59 274 144 274 42 0 95 -33 103 -64 6 -27 1 -102
-11 -148 -7 -25 -5 -28 19 -28 36 0 85 47 95 92 17 73 -11 146 -72 192 -31 23
-128 32 -167 15z"/>
<path d="M4729 1059 c45 -78 22 -189 -54 -264 -61 -62 -148 -94 -271 -102 -96
-7 -143 3 -304 63 -63 23 -132 45 -152 49 -24 5 -39 14 -43 26 -10 30 -73 67
-145 83 -83 20 -247 20 -330 0 -76 -17 -212 -81 -255 -119 l-30 -27 35 22 c71
44 158 80 240 101 146 37 361 16 436 -43 l29 -23 -90 -6 c-101 -6 -151 -26
-166 -66 -22 -59 39 -92 144 -79 65 8 116 38 130 76 l11 28 45 -23 c25 -13 79
-44 120 -69 109 -67 187 -91 296 -91 119 1 182 28 271 120 123 128 159 268 88
350 l-26 30 21 -36z m-857 -268 c15 -5 15 -10 5 -31 -16 -33 -73 -60 -139 -67
-43 -4 -58 -2 -77 14 -71 58 97 125 211 84z"/>
<path d="M1500 1048 c-69 -114 47 -336 218 -420 62 -31 74 -33 162 -32 113 1
182 24 306 101 43 28 93 57 111 66 l31 17 20 -35 c27 -44 68 -64 145 -72 81
-7 127 13 127 56 0 58 -66 91 -185 91 l-70 1 28 24 c48 43 127 60 272 60 116
0 139 -3 217 -29 48 -15 120 -48 160 -72 61 -37 67 -39 38 -14 -51 45 -163 97
-260 121 -70 18 -104 21 -205 17 -145 -6 -227 -33 -260 -85 -11 -18 -26 -32
-34 -33 -8 0 -95 -28 -194 -61 -179 -61 -181 -61 -271 -56 -125 6 -211 35
-274 92 -80 72 -109 185 -69 263 10 17 15 32 12 32 -3 0 -14 -15 -25 -32z
m1048 -260 c18 -5 40 -21 49 -34 15 -23 15 -26 -1 -42 -23 -23 -128 -22 -173
2 -35 17 -70 62 -59 73 20 21 118 21 184 1z"/>
</g>
</svg>
