<svg width="18" height="18" viewBox="0 0 18 18" fill="none" xmlns="http://www.w3.org/2000/svg">
<path d="M13.5 5.25V12.75C13.5 13.215 13.485 13.6275 13.4325 13.995C13.215 15.9675 12.285 16.5 9.75 16.5H8.25C5.715 16.5 4.785 15.9675 4.5675 13.995C4.515 13.6275 4.5 13.215 4.5 12.75V5.25C4.5 4.785 4.515 4.3725 4.5675 4.005C4.785 2.0325 5.715 1.5 8.25 1.5H9.75C12.285 1.5 13.215 2.0325 13.4325 4.005C13.485 4.3725 13.5 4.785 13.5 5.25Z" stroke="#96A1B0" stroke-width="1.125" stroke-linecap="round" stroke-linejoin="round"/>
<path d="M4.5 12.7505C4.5 13.2155 4.515 13.628 4.5675 13.9955C4.4625 14.003 4.365 14.003 4.2525 14.003H3.9975C2.0025 14.003 1.5 13.5005 1.5 11.498V6.50305C1.5 4.50055 2.0025 3.99805 3.9975 3.99805H4.2525C4.365 3.99805 4.4625 3.99805 4.5675 4.00555C4.515 4.37305 4.5 4.78555 4.5 5.25055V12.7505Z" stroke="#96A1B0" stroke-width="1.125" stroke-linecap="round" stroke-linejoin="round"/>
<path d="M16.5 6.50305V11.498C16.5 13.5005 15.9975 14.003 14.0025 14.003H13.7475C13.635 14.003 13.5375 14.003 13.4325 13.9955C13.485 13.628 13.5 13.2155 13.5 12.7505V5.25055C13.5 4.78555 13.485 4.37305 13.4325 4.00555C13.5375 3.99805 13.635 3.99805 13.7475 3.99805H14.0025C15.9975 3.99805 16.5 4.50055 16.5 6.50305Z" stroke="#96A1B0" stroke-width="1.125" stroke-linecap="round" stroke-linejoin="round"/>
</svg>
