<svg width="21" height="20" viewBox="0 0 21 20" fill="none" xmlns="http://www.w3.org/2000/svg">
<path d="M16.9166 17.5003H4.08325C1.33325 17.5003 1.33325 16.6003 1.33325 15.5003V14.8337C1.33325 14.467 1.74575 14.167 2.24992 14.167H18.7499C19.2541 14.167 19.6666 14.467 19.6666 14.8337V15.5003C19.6666 16.6003 19.6666 17.5003 16.9166 17.5003Z" stroke="#0D9D50" stroke-width="1.25" stroke-linecap="round" stroke-linejoin="round"/>
<path d="M18 11.667V14.167H3V11.667C3 9.26699 5.32951 7.26074 8.43267 6.77949C8.89685 6.70449 9.37822 6.66699 9.87679 6.66699H11.1232C11.6218 6.66699 12.1117 6.70449 12.5759 6.77949C15.6791 7.26699 18 9.26699 18 11.667Z" stroke="#0D9D50" stroke-width="1.25" stroke-linecap="round" stroke-linejoin="round"/>
<path d="M12.5834 6.25033C12.5834 6.45033 12.5584 6.63366 12.5084 6.81699C12.0584 6.71699 11.5834 6.66699 11.1001 6.66699H9.89175C9.40842 6.66699 8.94175 6.71699 8.49175 6.81699C8.44175 6.63366 8.41675 6.45033 8.41675 6.25033C8.41675 5.10033 9.35008 4.16699 10.5001 4.16699C11.6501 4.16699 12.5834 5.10033 12.5834 6.25033Z" stroke="#0D9D50" stroke-width="1.25" stroke-linecap="round" stroke-linejoin="round"/>
</svg>
